<svg xmlns="http://www.w3.org/2000/svg" xmlns:xlink="http://www.w3.org/1999/xlink" version="1.1" x="0px" y="0px" viewBox="0 0 100 125" enable-background="new 0 0 100 100" xml:space="preserve"><g><path d="M50.228,97.656c-10.127,0-19.615-3.923-26.03-10.762c-7.768-8.281-11.203-20.354-10.21-35.88  c0.603-9.427,4.71-21.437,10.464-30.595C31.663,8.944,40.816,2.625,50.228,2.625c10.249,0,19.379,6.162,26.405,17.821  c6.369,10.569,9.256,22.711,9.834,30.552c1.093,14.831-2.43,27.083-10.187,35.432C69.651,93.563,60.156,97.656,50.228,97.656z   M50.228,6.377c-10.894,0-18.834,10.049-22.598,16.04c-5.446,8.668-9.331,19.987-9.896,28.838  c-0.925,14.45,2.171,25.577,9.201,33.072c5.709,6.085,14.199,9.575,23.293,9.575c8.757,0,17.468-3.749,23.303-10.028  c7.027-7.564,10.206-18.838,9.192-32.602C81.569,35.618,70.852,6.377,50.228,6.377z"/></svg>